<?xml version="1.0" standalone="no"?>
<!DOCTYPE svg PUBLIC "-//W3C//DTD SVG 20010904//EN"
 "http://www.w3.org/TR/2001/REC-SVG-20010904/DTD/svg10.dtd">
<svg version="1.0" xmlns="http://www.w3.org/2000/svg"
 width="528.000000pt" height="1018.000000pt" viewBox="0 0 528.000000 1018.000000"
 preserveAspectRatio="xMidYMid meet">

<g transform="translate(0.000000,1018.000000) scale(0.100000,-0.100000)"
fill="#000000" stroke="none">
<path d="M990 9948 c0 -14 30 -118 40 -138 4 -9 11 -31 15 -49 4 -18 25 -51
46 -72 22 -22 37 -44 34 -49 -3 -5 -47 -30 -98 -56 -124 -63 -266 -164 -317
-224 -23 -28 -48 -50 -56 -50 -8 0 -14 -4 -14 -8 0 -5 -18 -33 -41 -63 -56
-75 -122 -195 -135 -249 -7 -25 -21 -81 -33 -125 -33 -121 -45 -355 -25 -454
9 -42 24 -95 35 -118 10 -23 19 -47 19 -52 0 -6 4 -11 9 -11 5 0 11 -10 15
-23 12 -49 110 -195 174 -260 93 -95 182 -155 282 -190 76 -26 95 -29 195 -27
135 3 153 5 185 17 14 6 40 14 58 18 l32 7 0 -3725 0 -3725 26 -17 c33 -21
315 -87 537 -124 557 -95 1034 -77 1612 58 202 48 233 57 251 72 12 10 14 556
14 3765 0 2065 3 3754 6 3754 3 0 19 -9 34 -20 93 -67 249 -100 375 -81 42 6
101 19 133 30 31 10 68 21 82 24 46 11 151 87 226 164 83 84 164 200 219 313
100 206 95 541 -11 755 -71 142 -100 183 -239 333 -75 81 -247 216 -362 285
-57 33 -103 64 -103 69 0 5 13 28 28 51 39 59 51 90 58 152 l7 55 -1657 0
c-1251 0 -1656 -3 -1656 -12z m3077 -290 c17 -10 35 -23 38 -29 12 -19 -26
-47 -76 -58 -34 -8 -479 -11 -1379 -11 -1188 0 -1334 2 -1369 16 -58 23 -62
47 -11 75 32 18 567 25 1845 24 855 0 922 -1 952 -17z m117 -279 c196 -34 402
-160 511 -314 101 -143 145 -275 145 -439 0 -119 -18 -201 -64 -299 -83 -180
-229 -305 -421 -363 -82 -25 -257 -25 -340 0 -272 81 -445 331 -406 586 21
139 110 277 223 343 148 86 352 74 483 -30 85 -66 144 -206 130 -307 -22 -168
-167 -290 -322 -272 -128 15 -223 113 -223 228 1 165 190 258 301 147 21 -21
40 -49 40 -61 2 -23 2 -23 6 -2 6 34 -21 89 -58 116 -174 130 -405 -24 -386
-257 12 -161 149 -294 322 -314 201 -22 377 73 465 253 186 379 -116 805 -571
806 -60 0 -124 -12 -295 -55 -507 -128 -780 -170 -1094 -170 -305 1 -507 37
-875 156 -140 45 -173 52 -266 57 -79 3 -127 0 -183 -13 -226 -50 -413 -223
-461 -426 -43 -186 8 -372 136 -494 81 -77 169 -117 272 -123 135 -8 231 23
316 103 196 183 99 515 -149 515 -92 0 -168 -51 -190 -128 -13 -48 -6 -52 15
-8 28 58 69 81 146 81 56 0 71 -4 102 -28 101 -77 110 -207 20 -307 -129 -144
-371 -97 -456 89 -17 36 -22 65 -22 136 0 78 4 97 28 146 33 69 109 142 182
175 293 134 624 -94 625 -431 0 -201 -115 -382 -303 -475 -338 -167 -747 -2
-886 359 -166 432 104 896 586 1007 111 26 283 24 388 -4 232 -61 519 -92 910
-99 417 -7 670 13 1115 89 290 49 353 53 504 27z m-824 -1049 c182 -15 190
-17 190 -43 0 -29 48 -111 99 -169 22 -25 41 -48 41 -50 0 -3 -82 6 -182 19
-637 81 -1139 79 -1608 -6 -58 -10 -107 -17 -109 -15 -3 3 11 21 31 42 52 55
76 93 88 144 12 45 12 45 63 51 61 7 404 35 497 41 122 7 764 -3 890 -14z
m-669 -499 l29 -29 0 -3724 0 -3725 -25 -23 c-34 -32 -91 -33 -116 -1 -19 23
-19 119 -17 3753 l3 3730 28 24 c37 32 62 30 98 -5z m-311 -3 l20 -22 0 -3727
0 -3728 -22 -15 c-36 -25 -98 -16 -120 18 -4 6 -8 1683 -8 3727 l0 3716 21 27
c27 34 79 36 109 4z m649 -4 l21 -27 0 -3718 0 -3718 -26 -20 c-32 -25 -81
-27 -106 -4 -17 16 -18 145 -18 3738 l0 3722 21 27 c15 19 30 26 54 26 24 0
39 -7 54 -26z m-994 -20 c48 -19 45 196 45 -3728 0 -2703 -3 -3672 -11 -3690
-23 -50 -103 -57 -134 -13 -13 19 -15 473 -15 3703 l0 3681 21 27 c20 26 57
34 94 20z m1305 -16 l20 -22 0 -3678 0 -3679 -25 -24 c-31 -32 -56 -31 -94 1
l-31 26 0 3676 0 3676 22 23 c28 30 80 31 108 1z m-1645 -54 c48 -19 45 190
45 -3657 0 -2598 -3 -3603 -11 -3626 -6 -17 -20 -36 -31 -42 -28 -15 -75 -2
-98 28 -20 26 -20 34 -20 3640 l0 3614 25 24 c24 24 57 31 90 19z m1965 -14
c20 -20 20 -33 20 -3638 0 -3568 0 -3619 -19 -3636 -29 -26 -91 -24 -113 4
-17 21 -18 178 -18 3630 l0 3607 21 27 c26 33 79 36 109 6z"/>
<path d="M4133 8558 c-34 -25 -40 -34 -34 -52 7 -16 17 -21 47 -21 33 0 40 4
48 26 9 27 1 80 -12 78 -4 0 -26 -14 -49 -31z"/>
<path d="M1286 8573 c-12 -12 -6 -81 8 -92 20 -17 67 -10 80 11 8 13 6 21 -6
35 -23 25 -74 54 -82 46z"/>
</g>
</svg>
