<?xml version="1.0" standalone="no"?>
<!DOCTYPE svg PUBLIC "-//W3C//DTD SVG 20010904//EN"
 "http://www.w3.org/TR/2001/REC-SVG-20010904/DTD/svg10.dtd">
<svg version="1.0" xmlns="http://www.w3.org/2000/svg"
 width="1000.000000pt" height="58.000000pt" viewBox="0 0 1000.000000 58.000000"
 preserveAspectRatio="xMidYMid meet">

<g transform="translate(0.000000,58.000000) scale(0.100000,-0.100000)"
fill="#000000" stroke="none">
<path d="M0 550 l0 -30 90 0 90 0 0 -165 0 -165 -90 0 -90 0 0 -30 0 -30 120
0 120 0 0 195 0 195 230 0 230 0 0 -165 0 -165 -100 0 -100 0 0 65 0 65 -30 0
-30 0 0 -95 0 -95 160 0 160 0 0 195 0 195 230 0 230 0 0 -165 0 -165 -100 0
-100 0 0 65 0 65 -30 0 -30 0 0 -95 0 -95 160 0 160 0 0 195 0 195 230 0 230
0 0 -165 0 -165 -100 0 -100 0 0 65 0 65 -30 0 -30 0 0 -95 0 -95 160 0 160 0
0 195 0 195 230 0 230 0 0 -165 0 -165 -100 0 -100 0 0 65 0 65 -30 0 -30 0 0
-95 0 -95 160 0 160 0 0 195 0 195 230 0 230 0 0 -165 0 -165 -100 0 -100 0 0
66 0 65 -27 -3 -28 -3 -3 -93 -3 -92 161 0 160 0 0 195 0 195 230 0 230 0 0
-165 0 -165 -100 0 -100 0 0 65 0 65 -30 0 -30 0 0 -95 0 -95 160 0 160 0 0
195 0 195 230 0 230 0 0 -165 0 -165 -100 0 -100 0 0 66 0 65 -27 -3 -28 -3
-3 -93 -3 -92 161 0 160 0 0 195 0 195 230 0 230 0 0 -165 0 -165 -100 0 -100
0 0 65 0 65 -30 0 -30 0 0 -95 0 -95 160 0 160 0 2 193 3 192 228 3 227 2 0
-165 0 -165 -100 0 -100 0 0 66 0 65 -27 -3 -28 -3 -3 -93 -3 -92 160 0 161 0
2 193 3 192 228 3 227 2 0 -165 0 -165 -100 0 -100 0 0 65 0 65 -30 0 -30 0 0
-95 0 -95 160 0 160 0 0 195 0 195 230 0 230 0 0 -165 0 -165 -100 0 -100 0 0
65 0 65 -30 0 -30 0 0 -95 0 -95 160 0 160 0 0 195 0 195 230 0 230 0 0 -165
0 -165 -100 0 -100 0 0 65 0 65 -30 0 -30 0 0 -95 0 -95 160 0 160 0 0 195 0
195 230 0 230 0 0 -165 0 -165 -100 0 -100 0 0 65 0 65 -30 0 -30 0 0 -95 0
-95 160 0 160 0 0 195 0 195 230 0 230 0 0 -165 0 -165 -100 0 -100 0 0 65 0
65 -30 0 -30 0 0 -95 0 -95 160 0 160 0 0 195 0 195 230 0 230 0 0 -165 0
-165 -100 0 -100 0 0 66 0 65 -27 -3 -28 -3 -3 -93 -3 -92 161 0 160 0 0 195
0 195 230 0 230 0 0 -165 0 -165 -100 0 -100 0 0 65 0 65 -30 0 -30 0 0 -95 0
-95 160 0 160 0 0 195 0 195 230 0 230 0 0 -165 0 -165 -100 0 -100 0 0 66 0
65 -27 -3 -28 -3 -3 -93 -3 -92 161 0 160 0 0 195 0 195 230 0 230 0 0 -165 0
-165 -100 0 -100 0 0 65 0 65 -30 0 -30 0 0 -95 0 -95 160 0 160 0 2 193 3
192 198 3 197 2 0 30 0 30 -5000 0 -5000 0 0 -30z"/>
<path d="M0 420 c0 -25 4 -30 25 -30 24 0 25 -2 25 -65 l0 -65 30 0 30 0 0 95
0 95 -55 0 c-54 0 -55 0 -55 -30z"/>
<path d="M310 255 l0 -195 -155 0 -155 0 0 -30 0 -30 5000 0 5000 0 0 30 0 30
-135 0 -135 0 0 165 0 165 100 0 100 0 0 -65 0 -65 30 0 30 0 0 95 0 95 -160
0 -160 0 0 -195 0 -195 -230 0 -230 0 0 165 0 165 100 0 100 0 0 -65 0 -65 30
0 30 0 0 95 0 95 -160 0 -160 0 0 -195 0 -195 -230 0 -230 0 0 165 0 165 100
0 100 0 0 -65 0 -65 30 0 30 0 0 95 0 95 -160 0 -160 0 0 -195 0 -195 -230 0
-230 0 0 165 0 165 100 0 100 0 0 -65 0 -65 30 0 30 0 0 95 0 95 -160 0 -160
0 0 -195 0 -195 -230 0 -230 0 0 165 0 165 100 0 100 0 0 -65 0 -65 30 0 30 0
0 95 0 95 -160 0 -160 0 0 -195 0 -195 -230 0 -230 0 0 165 0 165 100 0 100 0
0 -65 0 -65 30 0 30 0 0 95 0 95 -160 0 -160 0 0 -195 0 -195 -230 0 -230 0 0
165 0 165 100 0 100 0 0 -65 0 -65 30 0 30 0 0 95 0 95 -160 0 -160 0 0 -195
0 -195 -230 0 -230 0 0 165 0 165 100 0 100 0 0 -65 0 -65 30 0 30 0 0 95 0
95 -160 0 -160 0 0 -195 0 -195 -230 0 -230 0 0 165 0 165 100 0 100 0 0 -65
0 -65 30 0 30 0 0 95 0 95 -160 0 -160 0 0 -195 0 -195 -230 0 -230 0 0 165 0
165 100 0 100 0 0 -65 0 -65 30 0 30 0 0 95 0 95 -160 0 -160 0 0 -195 0 -195
-230 0 -230 0 0 165 0 165 100 0 100 0 0 -65 0 -65 30 0 30 0 0 95 0 95 -160
0 -160 0 0 -195 0 -195 -230 0 -230 0 0 165 0 165 100 0 100 0 0 -65 0 -65 30
0 30 0 0 95 0 95 -160 0 -160 0 0 -195 0 -195 -230 0 -230 0 0 165 0 165 100
0 100 0 0 -65 0 -65 30 0 30 0 0 95 0 95 -160 0 -160 0 0 -195 0 -195 -230 0
-230 0 0 165 0 165 100 0 100 0 0 -65 0 -65 30 0 30 0 0 95 0 95 -160 0 -160
0 0 -195 0 -195 -230 0 -230 0 0 165 0 165 100 0 100 0 0 -65 0 -65 30 0 30 0
0 95 0 95 -160 0 -160 0 0 -195 0 -195 -230 0 -230 0 0 165 0 165 100 0 100 0
0 -65 0 -65 30 0 30 0 0 95 0 95 -160 0 -160 0 0 -195 0 -195 -230 0 -230 0 0
165 0 165 100 0 100 0 0 -65 0 -65 30 0 30 0 0 95 0 95 -160 0 -160 0 0 -195
0 -195 -230 0 -230 0 0 165 0 165 100 0 100 0 0 -65 0 -65 30 0 30 0 0 95 0
95 -160 0 -160 0 0 -195 0 -195 -230 0 -230 0 0 165 0 165 100 0 100 0 0 -65
0 -65 30 0 30 0 0 95 0 95 -160 0 -160 0 0 -195z"/>
<path d="M9807 313 c-4 -3 -7 -46 -7 -95 l0 -88 100 0 100 0 0 30 0 30 -70 0
-70 0 0 65 c0 61 -1 65 -23 65 -13 0 -27 -3 -30 -7z"/>
</g>
</svg>
