<?xml version="1.0" standalone="no"?>
<!DOCTYPE svg PUBLIC "-//W3C//DTD SVG 20010904//EN"
 "http://www.w3.org/TR/2001/REC-SVG-20010904/DTD/svg10.dtd">
<svg version="1.0" xmlns="http://www.w3.org/2000/svg"
 width="1080.000000pt" height="1080.000000pt" viewBox="0 0 1080.000000 1080.000000"
 preserveAspectRatio="xMidYMid meet">

<g transform="translate(0.000000,1080.000000) scale(0.100000,-0.100000)"
fill="#000000" stroke="none">
<path d="M2385 8102 c-102 -56 -155 -100 -356 -296 -114 -111 -235 -221 -270
-246 -47 -33 -71 -58 -89 -95 -14 -27 -66 -93 -117 -145 l-92 -96 132 -131
c202 -199 356 -325 589 -481 59 -39 111 -78 115 -87 13 -22 83 -55 119 -55 34
0 104 45 128 82 37 59 36 61 -91 147 -65 44 -175 126 -244 184 -70 57 -162
128 -205 159 -124 87 -128 81 62 107 208 29 347 57 402 81 l42 19 0 66 c0 57
-3 69 -25 91 -22 22 -30 24 -82 18 -128 -13 -259 -35 -359 -59 -130 -33 -155
-30 -96 10 24 16 50 41 58 57 15 29 200 218 390 398 122 116 172 186 155 218
-16 29 -79 82 -99 82 -9 0 -39 -13 -67 -28z"/>
<path d="M4310 8118 c-57 -15 -190 -80 -190 -92 0 -40 107 -223 224 -381 28
-38 52 -78 53 -90 1 -11 5 -42 8 -70 6 -41 2 -64 -23 -130 -61 -163 -146 -355
-156 -355 -5 0 -54 139 -83 235 -13 44 -36 143 -52 220 -21 104 -41 167 -76
245 -32 70 -51 128 -57 175 -5 39 -12 86 -15 105 -3 22 -18 48 -44 73 -37 38
-42 39 -84 33 -59 -8 -143 -44 -155 -67 -23 -41 22 -181 158 -495 88 -200 119
-295 188 -559 64 -245 152 -515 168 -515 2 0 79 158 171 350 113 235 171 346
177 337 4 -8 33 -77 65 -153 l57 -139 3 -135 c1 -74 5 -149 8 -166 8 -44 45
-75 99 -81 l44 -5 41 83 c22 46 65 153 96 238 31 85 70 187 87 225 35 81 88
234 88 252 0 7 21 41 48 76 57 76 111 177 146 277 18 50 41 90 67 118 49 53
69 98 69 154 0 25 8 52 20 69 20 28 20 28 -1 54 -30 39 -75 59 -115 52 -32 -6
-82 -56 -157 -156 -58 -78 -136 -250 -192 -425 -32 -99 -69 -196 -82 -216 -13
-19 -44 -87 -69 -150 -50 -125 -59 -140 -67 -113 -15 49 -117 481 -117 494 0
27 83 215 110 250 15 19 57 87 94 150 37 63 74 125 83 138 15 22 15 22 -18 22
-19 0 -71 3 -116 7 l-83 6 -34 -36 c-39 -42 -84 -118 -121 -208 -15 -35 -30
-68 -35 -72 -4 -5 -33 56 -64 135 -59 149 -104 240 -121 244 -5 1 -26 -2 -45
-8z"/>
<path d="M6415 8102 c-102 -56 -155 -100 -356 -296 -114 -111 -235 -221 -270
-246 -47 -33 -71 -58 -89 -95 -14 -27 -66 -93 -117 -145 l-92 -96 132 -131
c202 -199 356 -325 589 -481 59 -39 111 -78 115 -87 13 -22 83 -55 119 -55 34
0 104 45 128 82 37 59 36 61 -91 147 -65 44 -175 126 -244 184 -70 57 -162
128 -205 159 -124 87 -128 81 62 107 208 29 347 57 402 81 l42 19 0 66 c0 57
-3 69 -25 91 -22 22 -30 24 -82 18 -128 -13 -259 -35 -359 -59 -130 -33 -155
-30 -96 10 24 16 50 41 58 57 15 29 200 218 390 398 122 116 172 186 155 218
-16 29 -79 82 -99 82 -9 0 -39 -13 -67 -28z"/>
<path d="M7775 8102 c-102 -56 -155 -100 -356 -296 -114 -111 -235 -221 -270
-246 -47 -33 -71 -58 -89 -95 -14 -27 -66 -93 -117 -145 l-92 -96 132 -131
c202 -199 356 -325 589 -481 59 -39 111 -78 115 -87 13 -22 83 -55 119 -55 34
0 104 45 128 82 37 59 36 61 -91 147 -65 44 -175 126 -244 184 -70 57 -162
128 -205 159 -124 87 -128 81 62 107 208 29 347 57 402 81 l42 19 0 66 c0 57
-3 69 -25 91 -22 22 -30 24 -82 18 -128 -13 -259 -35 -359 -59 -130 -33 -155
-30 -96 10 24 16 50 41 58 57 15 29 200 218 390 398 122 116 172 186 155 218
-16 29 -79 82 -99 82 -9 0 -39 -13 -67 -28z"/>
<path d="M9188 8109 c-10 -5 -35 -36 -57 -67 -21 -31 -53 -70 -71 -87 -18 -16
-82 -86 -143 -155 -188 -214 -277 -301 -324 -317 -24 -8 -65 -35 -92 -59 -29
-26 -52 -40 -56 -34 -9 14 4 175 21 280 8 47 14 133 13 191 -1 62 3 115 10
127 25 47 -3 92 -57 92 -26 0 -120 -26 -139 -38 -8 -5 -19 -81 -31 -212 -25
-274 -27 -1290 -2 -1298 8 -3 30 -20 49 -39 42 -41 70 -42 116 -2 l35 31 0
275 0 275 44 -39 c220 -193 353 -305 416 -351 41 -31 98 -77 125 -103 76 -72
122 -99 167 -99 92 0 142 74 103 151 -19 36 -90 89 -120 89 -15 0 -25 8 -28
22 -5 16 -9 19 -19 11 -10 -8 -48 21 -158 124 -122 114 -222 200 -360 312
l-25 20 71 73 c39 40 99 108 133 150 34 43 127 137 207 209 143 129 239 232
290 309 22 33 26 48 21 87 -3 32 -12 53 -27 65 -24 20 -85 23 -112 7z"/>
<path d="M2935 7674 c79 -37 275 -124 280 -124 4 0 3 9 0 20 -6 18 -4 19 17 9
38 -17 55 -51 59 -113 l4 -58 -43 -15 c-58 -19 -67 -9 -12 13 37 15 41 19 26
29 -15 12 -15 13 1 19 15 6 15 8 3 16 -10 7 -11 10 -2 10 6 0 12 4 12 9 0 12
-39 25 -65 23 -13 -1 -9 3 10 11 l30 14 -57 7 c-32 4 -58 12 -58 17 0 6 -10 3
-22 -5 -12 -9 -32 -16 -45 -16 -12 0 -28 -6 -36 -14 -14 -14 -9 -55 18 -157 6
-24 3 -27 -46 -45 -66 -23 -70 -36 -74 -220 -1 -72 -6 -141 -10 -153 -9 -29
10 -51 44 -51 36 0 55 30 36 57 -21 29 -5 37 22 11 19 -18 33 -21 80 -19 56 3
157 34 168 51 10 15 -26 62 -43 55 -10 -4 -12 -1 -7 12 4 10 11 45 15 78 16
116 17 117 84 150 70 35 78 55 52 132 -9 26 -16 57 -16 69 0 22 1 22 70 -12
39 -19 73 -34 76 -34 3 0 2 9 -1 20 -8 24 -11 24 60 0 32 -11 60 -18 62 -16 2
2 -33 25 -79 51 -46 27 -93 55 -106 63 -23 15 -23 14 -16 -13 6 -26 6 -27 -17
-15 -13 7 -38 25 -56 41 -19 17 -39 26 -51 22 -10 -2 -51 12 -91 31 -65 32
-73 33 -68 16 7 -27 -8 -26 -120 10 -99 32 -138 38 -88 14z m411 -111 c-8 -8
-36 5 -36 17 0 7 6 7 21 0 11 -7 18 -14 15 -17z m-6 -62 c0 -15 7 -48 16 -74
22 -65 16 -87 -31 -114 -22 -12 -45 -23 -50 -23 -12 0 -36 76 -27 85 10 9 52
5 52 -5 0 -5 4 -10 10 -10 6 0 7 33 3 90 -5 82 -4 90 10 84 10 -4 17 -17 17
-33z m-186 -20 c13 -14 16 -28 11 -54 -7 -36 -29 -55 -41 -36 -3 6 -16 8 -29
5 -16 -4 -25 -1 -29 11 -8 20 2 32 13 15 6 -10 16 -9 47 5 29 12 34 18 20 21
-10 2 -23 -1 -28 -6 -10 -10 -20 -7 -57 15 -2 2 4 12 14 23 23 25 57 26 79 1z
m-34 -111 c0 -5 -7 -10 -15 -10 -8 0 -15 5 -15 10 0 6 7 10 15 10 8 0 15 -4
15 -10z m18 -89 c48 -25 15 -81 -47 -81 -36 0 -37 1 -33 31 7 46 -14 28 -23
-18 -3 -21 -15 -52 -25 -70 -17 -29 -20 -53 -23 -170 0 -18 -5 -33 -10 -33 -5
0 -7 -7 -3 -15 3 -8 2 -15 -3 -15 -5 0 -14 7 -21 15 -10 12 -10 18 -1 29 8 10
10 28 5 53 -5 21 -7 49 -5 63 1 14 3 61 5 105 3 97 13 118 65 134 22 6 43 17
47 23 5 7 14 3 28 -14 12 -14 31 -31 44 -37z m80 -24 c3 -41 1 -47 -16 -47
-22 0 -34 -22 -26 -45 4 -10 0 -15 -10 -15 -25 0 -31 29 -10 44 11 9 18 26 18
49 0 27 3 34 16 29 12 -5 13 -3 3 10 -14 16 -7 31 11 25 6 -2 12 -25 14 -50z
m-103 -114 c-8 -20 -15 -55 -15 -79 0 -46 -16 -58 -39 -30 -12 15 -26 118 -18
139 3 8 18 11 46 9 l40 -4 -14 -35z m95 37 c0 -5 -4 -10 -10 -10 -5 0 -10 5
-10 10 0 6 5 10 10 10 6 0 10 -4 10 -10z m-40 -65 c-13 -16 -50 -8 -44 10 3 7
15 10 30 7 18 -3 22 -8 14 -17z m-148 -20 c3 -14 1 -28 -3 -31 -5 -3 -9 9 -9
25 0 38 6 40 12 6z m138 -10 c0 -12 -24 -55 -32 -55 -4 0 -8 14 -8 30 0 23 4
30 20 30 11 0 20 -2 20 -5z"/>
<path d="M6039 6432 c-15 -9 -61 -44 -104 -77 -130 -101 -146 -113 -265 -192
-166 -110 -193 -126 -416 -252 -139 -79 -215 -134 -227 -165 -5 -11 -15 -66
-22 -121 -15 -104 -29 -173 -39 -182 -12 -12 25 -74 70 -117 45 -44 46 -46 42
-93 -3 -26 -9 -57 -14 -67 -6 -16 2 -14 52 14 168 94 261 194 372 401 67 124
116 170 210 198 38 12 76 29 83 38 13 15 12 15 -18 0 -50 -26 -49 -20 4 22 62
49 98 89 90 98 -4 3 -26 -8 -50 -25 -50 -38 -138 -92 -151 -92 -5 0 31 28 78
62 92 65 189 162 199 197 3 12 2 21 -2 21 -6 0 -60 -31 -146 -85 -16 -10 20
29 80 87 61 58 118 120 129 138 l19 32 -65 -36 c-36 -20 -71 -36 -77 -36 -7 0
28 39 79 87 50 48 100 104 111 125 22 42 17 46 -22 20z m-902 -707 c-26 -25
-46 -48 -45 -52 3 -13 -34 -93 -42 -93 -12 0 8 77 27 106 13 21 89 82 102 84
3 0 -16 -20 -42 -45z m208 -144 c12 -20 -36 -79 -81 -101 -68 -31 -76 -19 -10
15 37 19 53 32 47 38 -7 7 -4 15 7 23 15 12 14 13 -13 14 -23 0 -27 3 -15 10
19 12 57 13 65 1z m-185 -85 c0 -8 -13 -24 -30 -36 -16 -12 -30 -16 -30 -10 0
6 7 13 16 17 8 3 13 11 10 18 -6 15 2 25 21 25 7 0 13 -6 13 -14z m75 -86 c8
-14 -40 -60 -62 -60 -14 1 -12 6 12 25 23 19 26 25 13 25 -10 0 -18 5 -18 10
0 13 47 13 55 0z m-70 -89 c3 -5 -5 -17 -17 -25 -28 -20 -50 -20 -24 -1 11 8
14 15 8 15 -7 0 -12 5 -12 10 0 13 37 13 45 1z"/>
<path d="M6835 6003 c-38 -8 -581 -111 -730 -139 -175 -31 -377 -89 -461 -130
-53 -27 -63 -37 -106 -109 -174 -296 -241 -371 -416 -462 -79 -41 -107 -73
-97 -111 18 -72 17 -87 -9 -125 -25 -36 -25 -38 -6 -32 13 4 43 -2 76 -15 30
-13 57 -20 60 -17 3 3 -4 8 -15 12 -12 3 -21 11 -21 16 0 14 12 11 55 -16 52
-32 68 -31 30 1 -16 14 -25 24 -20 22 6 -1 32 -12 58 -22 51 -20 73 -15 41 9
-23 17 -9 19 35 4 34 -12 105 -4 96 11 -3 5 -22 12 -43 16 -81 14 -65 25 28
19 52 -3 109 -1 125 4 29 9 28 9 -15 11 -25 1 -63 10 -85 21 -22 10 -30 16
-17 13 38 -10 204 -7 237 4 29 9 29 10 -22 17 -69 10 -58 25 17 25 57 0 140
24 140 40 0 4 -23 10 -52 13 -82 10 -84 27 -2 28 76 1 145 17 152 37 2 8 -11
12 -47 12 -85 0 -65 17 28 23 48 3 103 12 122 20 l34 14 -50 8 c-86 13 -80 22
19 29 93 6 146 20 146 38 0 4 -15 8 -32 9 -31 0 -86 17 -62 18 106 7 235 26
259 39 l30 16 -80 15 -80 15 80 7 c106 10 183 28 223 51 56 34 41 42 -70 35
-69 -5 -98 -4 -88 3 8 5 24 10 35 10 22 0 141 25 221 47 50 13 115 65 101 80
-4 3 -47 1 -96 -5 -106 -14 -134 -15 -127 -3 3 5 36 12 73 16 94 9 131 20 185
54 45 28 86 76 76 87 -3 2 -45 -2 -93 -11 -48 -8 -95 -15 -103 -15 -32 0 5 16
78 34 89 22 136 44 170 81 l25 28 -45 -6 c-25 -3 -70 -9 -100 -12 -52 -6 -54
-5 -30 9 14 8 33 15 43 16 37 0 157 70 157 92 0 8 -2 8 -35 1z m-1182 -425
c-21 -18 -41 -37 -45 -43 -11 -15 -9 4 2 25 10 18 55 49 73 50 4 0 -9 -15 -30
-32z m-140 -197 c-12 -10 -19 -21 -16 -24 3 -4 -6 -11 -21 -17 -38 -14 -46
-12 -16 5 14 8 21 15 15 15 -13 1 37 40 50 39 6 0 0 -8 -12 -18z m111 -107 c9
-3 16 -10 16 -15 0 -14 -62 -49 -85 -48 -15 0 -12 4 13 16 31 16 43 33 21 33
-5 0 -7 5 -4 10 7 12 17 12 39 4z m-224 -29 c-6 -8 -22 -17 -33 -21 -12 -3
-32 -15 -44 -26 -12 -11 -28 -18 -35 -15 -8 3 -3 9 13 15 15 6 28 15 30 20 4
9 57 39 73 41 5 1 3 -6 -4 -14z m-121 -91 c-9 -8 -36 -20 -60 -25 -24 -5 -52
-12 -63 -15 -11 -4 -16 -2 -12 4 3 6 23 13 44 17 20 3 48 13 62 20 34 19 48
19 29 -1z m250 7 c11 -7 7 -14 -20 -30 -31 -19 -69 -28 -69 -16 0 3 15 11 33
19 26 12 28 15 10 15 -12 1 -25 6 -28 11 -8 13 55 13 74 1z m-136 -87 c12 -12
-6 -33 -34 -39 -16 -4 -29 -10 -29 -15 0 -14 -90 -24 -103 -11 -8 8 0 11 32
11 34 0 42 3 37 15 -4 12 3 15 34 15 41 0 63 15 33 23 -15 4 -14 5 3 6 11 0
23 -2 27 -5z m-248 -35 c4 -6 4 -13 1 -16 -10 -10 -86 -20 -91 -12 -3 4 11 11
31 15 25 5 32 9 22 15 -9 6 -7 9 9 9 12 0 25 -5 28 -11z"/>
<path d="M4337 5617 l-49 -12 26 -24 c14 -13 32 -47 40 -75 17 -57 40 -83 101
-114 22 -12 36 -21 31 -22 -4 0 -30 12 -57 27 -54 29 -83 68 -93 125 -9 47
-55 88 -100 88 -39 0 -95 -35 -114 -70 -15 -30 -11 -135 6 -152 19 -19 25 -1
8 24 -23 33 -20 75 9 103 13 14 29 25 34 25 30 0 116 -108 100 -125 -2 -2 -20
0 -39 5 -32 7 -32 8 -7 9 34 1 34 8 -4 54 -35 43 -62 47 -84 13 -14 -21 -14
-27 0 -64 18 -44 35 -53 77 -39 20 6 35 4 58 -9 16 -10 30 -21 30 -25 0 -4 15
-17 34 -28 37 -23 105 -28 135 -9 46 28 159 -45 148 -96 -2 -12 -8 -30 -12
-40 -7 -16 -6 -17 11 -8 10 5 23 25 30 44 10 30 11 24 11 -54 0 -107 10 -125
95 -170 75 -40 83 -63 44 -131 -36 -61 -35 -108 5 -141 40 -34 56 -33 33 1
l-18 28 33 -28 c39 -32 63 -34 128 -7 47 20 48 20 25 0 -45 -38 -121 -49 -176
-26 -79 33 -94 81 -51 166 39 78 35 97 -29 125 -57 25 -93 62 -102 104 -13 58
-15 61 -44 61 -53 0 -84 25 -39 32 29 4 43 29 35 62 -10 39 -58 56 -155 56
-77 0 -81 1 -132 40 -34 25 -59 38 -69 34 -8 -4 -39 -6 -67 -5 -29 1 -53 -2
-53 -6 0 -13 55 -43 77 -43 27 0 53 -31 53 -64 0 -27 -17 -48 -79 -94 -28 -21
-29 -24 -16 -50 42 -85 104 -219 109 -235 3 -9 14 -20 23 -24 10 -3 26 -13 35
-20 37 -33 78 14 64 72 -8 31 9 33 19 3 6 -19 8 -20 12 -6 2 9 -1 26 -6 37 -6
11 -11 41 -11 66 0 43 -1 46 -22 39 -17 -5 -13 2 16 30 37 35 39 38 33 87 -4
28 -16 66 -27 85 -40 63 -11 35 36 -37 45 -68 47 -73 53 -168 6 -83 11 -102
33 -132 14 -19 33 -50 42 -69 16 -34 16 -34 -1 -10 -67 92 -78 94 -98 13 -10
-40 -21 -55 -66 -90 -75 -59 -131 -91 -196 -114 -31 -10 -65 -27 -75 -36 -24
-21 -23 -69 2 -143 11 -33 26 -103 34 -157 17 -115 72 -237 118 -263 35 -19
43 -9 42 50 0 52 -15 77 -51 91 -27 10 -43 45 -43 97 0 20 -9 57 -20 81 -24
52 -25 72 -5 138 18 61 30 66 170 83 117 14 128 18 119 38 -17 37 7 192 29
192 5 0 7 -7 4 -15 -4 -8 -12 -41 -18 -73 -10 -49 -10 -65 1 -93 l14 -33 13
30 12 29 1 -37 c0 -21 2 -38 5 -38 11 0 70 33 88 48 15 13 17 13 12 1 -3 -8
-22 -24 -43 -34 -20 -11 -61 -42 -91 -69 -30 -26 -73 -57 -97 -68 -55 -24 -94
-78 -94 -130 0 -21 10 -61 23 -90 13 -29 29 -79 36 -111 10 -47 23 -70 62
-113 27 -30 49 -58 49 -62 0 -8 101 -62 114 -62 3 0 6 16 6 36 0 64 -36 108
-82 99 -34 -5 -58 17 -58 53 0 15 -13 41 -29 60 -16 18 -34 54 -41 80 -10 42
-9 55 10 103 29 75 42 99 54 99 6 0 5 -5 -2 -12 -27 -27 -11 -35 29 -15 26 13
73 23 123 27 45 4 97 12 116 18 19 7 54 17 77 22 31 8 43 16 46 33 l4 22 2
-22 c1 -14 -10 -31 -29 -45 l-30 -22 42 -13 c55 -17 224 -19 275 -3 21 7 76
31 123 53 76 36 93 41 163 41 76 1 80 0 104 -29 13 -17 39 -59 56 -95 32 -63
34 -65 93 -85 34 -11 79 -32 100 -47 21 -15 57 -34 80 -42 82 -29 124 -57 174
-118 63 -78 98 -148 110 -220 9 -58 34 -118 49 -118 5 0 20 -18 35 -40 30 -46
95 -109 112 -110 16 0 24 24 24 76 0 65 -14 85 -55 82 -42 -3 -65 16 -65 54 0
16 -18 62 -40 102 -26 47 -44 97 -51 137 -15 90 -27 116 -65 139 -18 12 -64
57 -103 102 -81 92 -106 152 -97 226 29 244 17 315 -72 416 -57 64 -101 94
-122 81 -5 -3 -8 -10 -5 -15 6 -10 -56 -40 -84 -40 -12 0 -24 -7 -27 -15 -7
-18 -65 -35 -119 -35 -25 0 -35 -3 -27 -9 11 -6 11 -10 0 -18 -20 -17 -158
-43 -223 -43 -11 0 -35 0 -54 0 -18 0 -49 9 -68 21 -25 16 -44 20 -69 16 -20
-4 -32 -2 -29 4 14 22 -16 6 -39 -22 -29 -34 -32 -56 -12 -84 13 -18 19 -18
58 -8 38 10 41 10 24 -3 -32 -23 -72 -17 -97 14 l-22 27 7 -30 c4 -16 14 -36
23 -42 9 -7 12 -13 6 -13 -5 0 -18 9 -28 20 -31 34 -12 85 56 151 48 46 59 62
59 88 0 37 -19 78 -49 105 -15 14 -21 30 -20 60 l1 41 7 -37 c4 -20 14 -44 21
-53 13 -16 15 -15 27 1 7 10 13 29 13 43 0 21 2 23 11 11 7 -11 9 -1 7 37 -2
40 0 49 10 41 9 -8 12 -3 12 22 0 26 -9 41 -42 72 -24 22 -54 62 -68 91 -34
70 -53 74 -35 8 7 -27 16 -55 20 -62 5 -7 4 -10 -2 -6 -6 4 -20 32 -31 64 -26
72 -78 126 -139 147 -58 20 -103 21 -103 2 0 -9 -10 -4 -29 13 -41 38 -151 69
-151 42 0 -5 11 -22 24 -38 13 -15 33 -50 45 -78 19 -44 29 -54 84 -83 91 -46
129 -89 134 -149 5 -47 -11 -112 -24 -99 -4 3 -17 -1 -30 -10 -13 -8 -30 -13
-36 -11 -7 2 0 10 15 17 15 7 31 22 34 34 7 21 7 21 14 1 6 -17 8 -16 14 12 9
38 -7 102 -34 136 -20 25 -151 94 -225 117 -37 12 -38 14 -17 23 17 8 26 6 42
-8 25 -23 25 -16 -1 44 -35 82 -92 110 -182 88z m113 -82 c5 3 12 0 16 -6 5
-8 3 -9 -6 -4 -10 6 -12 3 -7 -11 7 -18 7 -18 -8 0 -8 11 -15 25 -14 30 0 6 3
5 6 -2 2 -6 9 -10 13 -7z m90 -175 c18 -12 2 -12 -25 0 -13 6 -15 9 -5 9 8 0
22 -4 30 -9z m-241 -154 c11 -26 10 -28 -3 -16 -13 10 -16 10 -16 -2 0 -8 5
-19 11 -25 8 -8 8 -17 0 -32 -10 -17 -15 -19 -31 -11 -25 13 -26 42 -1 64 12
11 17 25 13 44 -5 32 8 21 27 -22z m534 7 c-2 -35 -1 -36 5 -8 l8 30 8 -40 c4
-23 27 -66 52 -100 l45 -60 -43 45 c-24 25 -52 50 -62 55 -25 13 -40 68 -26
95 15 28 16 26 13 -17z m-24 -128 c91 -45 143 -128 111 -175 -8 -11 -9 -9 -5
11 12 48 -17 93 -86 134 -73 43 -89 60 -88 89 0 17 3 16 11 -7 6 -18 26 -36
57 -52z m-520 -32 c0 -25 -1 -25 -8 -8 -5 11 -7 23 -4 28 8 14 13 7 12 -20z
m49 -142 c12 -15 17 -61 6 -61 -3 0 -14 5 -25 10 -22 12 -26 35 -4 26 23 -8
18 22 -5 34 -11 6 -20 16 -20 22 0 11 26 -5 48 -31z m513 -56 c-30 -33 -41
-53 -41 -77 -1 -27 -2 -30 -11 -16 -7 12 -6 25 2 40 14 27 82 106 88 101 2 -1
-15 -23 -38 -48z m649 30 c0 -8 4 -15 8 -15 10 0 35 -50 29 -56 -2 -2 -16 7
-30 20 -26 24 -37 66 -17 66 6 0 10 -7 10 -15z m-37 -246 c-28 -47 -45 -56
-20 -10 12 22 26 41 30 41 5 0 0 -14 -10 -31z m121 -49 c5 -30 3 -28 -19 19
-30 64 -31 71 -6 40 10 -13 21 -40 25 -59z m-652 -2 c-18 -31 -42 -49 -42 -30
0 13 40 62 51 62 5 0 1 -14 -9 -32z m-643 -502 c-9 -8 -10 -5 -5 14 3 14 7 34
7 45 1 11 4 5 6 -14 3 -19 -1 -39 -8 -45z m291 -124 c0 -44 -6 -39 -18 16 -9
36 -8 41 4 31 8 -6 14 -27 14 -47z m1740 -287 c-16 -42 -24 -22 -9 22 7 21 14
31 16 22 2 -8 -1 -28 -7 -44z"/>
<path d="M4105 5340 c27 -12 43 -12 25 0 -8 5 -22 9 -30 9 -10 0 -8 -3 5 -9z"/>
<path d="M4019 5306 c20 -24 51 -27 51 -5 0 15 -7 19 -31 19 -26 0 -29 -3 -20
-14z"/>
<path d="M4095 5300 c4 -14 18 -35 31 -47 31 -28 30 -38 -5 -74 l-29 -29 24 0
c51 0 85 73 48 102 -9 7 -30 27 -47 43 -29 29 -30 30 -22 5z"/>
<path d="M4135 5310 c3 -4 25 -13 49 -19 25 -6 48 -16 52 -23 4 -7 3 -8 -4 -4
-7 4 -36 13 -64 21 -45 11 -50 11 -33 0 46 -32 75 -60 75 -73 0 -25 28 6 35
40 5 20 3 35 -6 43 -15 14 -112 28 -104 15z"/>
<path d="M4025 5235 c-27 -12 -60 -32 -71 -43 -25 -24 -40 -103 -25 -129 10
-17 10 -17 11 2 1 55 22 96 70 134 27 22 55 41 62 44 7 2 11 7 8 10 -3 2 -27
-5 -55 -18z"/>
<path d="M4087 5242 c-10 -11 -33 -28 -52 -38 -61 -33 -82 -119 -35 -144 27
-14 32 -12 22 8 -6 9 -6 26 -2 38 10 25 66 74 85 74 8 0 19 10 26 21 9 18 8
25 -8 41 -19 18 -20 18 -36 0z"/>
<path d="M6073 5130 c-49 -11 -98 -54 -133 -115 -17 -30 -35 -55 -38 -55 -4 0
-18 -9 -32 -19 -24 -19 -24 -20 -6 -40 19 -21 53 -30 41 -11 -4 6 8 10 29 10
23 0 39 6 48 19 20 28 75 37 99 15 10 -9 19 -24 20 -33 0 -10 3 -11 5 -4 3 7
0 21 -6 32 -7 13 -7 21 -1 21 13 0 31 -33 31 -55 0 -8 -18 -35 -40 -59 -40
-44 -70 -101 -70 -133 1 -16 2 -16 12 2 6 11 27 38 48 60 21 22 45 54 53 70 9
17 16 24 17 17 0 -19 -25 -65 -49 -86 -11 -10 -32 -38 -46 -62 -20 -35 -25
-55 -24 -111 l1 -68 14 44 c19 60 25 63 18 10 -8 -56 11 -151 36 -181 18 -22
18 -21 0 32 -21 61 -26 110 -10 110 6 0 10 -13 10 -30 0 -34 26 -107 47 -131
8 -9 41 -31 74 -49 67 -35 99 -77 99 -127 0 -48 -23 -67 -80 -64 l-25 1 25
-14 c46 -28 124 -17 174 23 17 14 17 11 -3 -16 -12 -18 -31 -39 -41 -46 -11
-8 -23 -29 -26 -48 -4 -22 -2 -29 3 -21 7 9 13 2 21 -26 7 -21 20 -46 30 -55
26 -24 98 -47 144 -47 44 0 44 14 0 23 -45 9 -90 53 -103 100 -9 35 -8 52 6
97 10 30 26 66 36 79 32 41 52 126 44 189 -8 66 -43 120 -115 181 -26 22 -55
55 -64 74 -20 44 -21 136 -1 184 20 47 19 162 -1 213 -31 77 -162 126 -271
100z m183 -210 l7 -45 11 40 c7 23 15 35 19 29 11 -19 -19 -91 -58 -138 -46
-56 -75 -124 -80 -189 -4 -47 -4 -49 5 -19 6 17 12 32 14 32 2 0 1 -30 -1 -67
-6 -80 20 -163 65 -208 22 -23 23 -26 5 -17 -12 7 -31 24 -42 38 -27 34 -71
174 -71 224 0 52 29 128 72 187 40 56 49 123 24 172 -22 42 -20 61 4 31 11
-14 22 -45 26 -70z"/>
<path d="M3960 5065 c0 -24 41 -65 65 -65 7 0 23 -9 36 -19 23 -19 24 -19 5
-40 -16 -17 -16 -21 -4 -21 21 0 34 18 41 56 5 26 2 33 -19 43 -14 6 -34 11
-45 11 -11 0 -34 13 -50 29 -29 29 -29 29 -29 6z"/>
<path d="M5370 4478 c-25 -5 -48 -13 -53 -17 -4 -4 -1 -24 8 -44 12 -30 13
-45 4 -82 -6 -24 -9 -55 -5 -67 10 -42 66 -97 134 -133 105 -55 155 -134 122
-195 -5 -10 -50 -50 -99 -89 l-89 -70 -7 -86 c-7 -78 -5 -92 15 -136 13 -27
29 -49 36 -49 18 0 33 31 40 82 5 37 3 46 -20 67 -34 32 -33 48 4 69 16 9 30
23 30 31 0 25 48 77 120 131 39 29 78 66 86 82 15 29 14 31 -35 106 -57 85
-68 122 -52 178 9 33 8 41 -8 59 -11 11 -30 45 -44 75 -13 30 -33 63 -43 72
-25 22 -88 29 -144 16z m60 -883 c-13 -14 -26 -23 -28 -20 -7 7 29 45 41 45 6
0 0 -11 -13 -25z"/>
<path d="M4464 3277 c-91 -90 -94 -93 -85 -124 22 -75 43 -71 127 22 37 41 73
75 80 75 6 0 26 -16 43 -36 28 -31 31 -40 25 -72 -11 -59 -18 -74 -98 -190
-103 -152 -129 -206 -121 -249 3 -19 12 -36 19 -39 8 -3 49 0 92 6 47 6 98 7
124 2 25 -4 66 -6 93 -4 l47 4 0 53 c0 49 -2 53 -26 59 -15 4 -69 2 -120 -5
-52 -7 -97 -10 -100 -6 -6 5 99 181 182 308 13 19 24 43 24 52 0 32 -29 87
-77 148 -46 60 -86 89 -119 89 -9 0 -58 -42 -110 -93z"/>
<path d="M5043 3313 c-69 -70 -118 -159 -127 -228 -21 -159 64 -360 173 -409
48 -22 72 -17 137 26 41 28 56 47 94 123 l45 90 -2 120 c-3 174 -8 198 -51
245 -48 54 -93 81 -134 80 -18 -1 -43 1 -55 5 -19 6 -33 -3 -80 -52z m206
-138 c7 -22 13 -78 13 -125 0 -118 -22 -181 -84 -233 l-47 -39 -33 19 c-44 25
-65 65 -79 149 -12 67 -11 73 16 149 21 56 40 88 68 115 l38 38 47 -17 c40
-14 49 -23 61 -56z"/>
<path d="M5594 3277 c-91 -90 -94 -93 -85 -124 22 -75 43 -71 127 22 37 41 73
75 80 75 6 0 26 -16 43 -36 28 -31 31 -40 25 -72 -11 -59 -18 -74 -98 -190
-103 -152 -129 -206 -121 -249 3 -19 12 -36 19 -39 8 -3 49 0 92 6 47 6 98 7
124 2 25 -4 66 -6 93 -4 l47 4 0 53 c0 49 -2 53 -26 59 -15 4 -69 2 -120 -5
-52 -7 -97 -10 -100 -6 -6 5 99 181 182 308 13 19 24 43 24 52 0 32 -29 87
-77 148 -46 60 -86 89 -119 89 -9 0 -58 -42 -110 -93z"/>
<path d="M6085 3340 c-8 -16 -15 -35 -15 -42 0 -7 43 -35 95 -62 52 -27 100
-55 106 -63 16 -19 -8 -44 -71 -73 -42 -19 -50 -28 -50 -50 0 -23 10 -32 67
-61 36 -19 71 -41 76 -50 14 -22 -42 -91 -108 -133 -29 -19 -58 -48 -70 -70
l-20 -38 24 -19 c13 -10 30 -19 38 -19 8 0 56 40 106 88 51 49 107 96 124 106
32 16 48 48 41 82 -3 17 -46 55 -108 95 l-25 16 41 45 c23 25 45 55 49 67 8
26 -14 55 -60 78 -16 9 -47 31 -67 49 -36 32 -127 84 -147 84 -6 0 -17 -13
-26 -30z"/>
</g>
</svg>
