<?xml version="1.0" standalone="no"?>
<!DOCTYPE svg PUBLIC "-//W3C//DTD SVG 20010904//EN"
 "http://www.w3.org/TR/2001/REC-SVG-20010904/DTD/svg10.dtd">
<svg version="1.0" xmlns="http://www.w3.org/2000/svg"
 width="1102.000000pt" height="1123.000000pt" viewBox="0 0 1102.000000 1123.000000"
 preserveAspectRatio="xMidYMid meet">

<g transform="translate(0.000000,1123.000000) scale(0.100000,-0.100000)"
fill="#000000" stroke="none">
<path d="M10403 11169 c-21 -28 -53 -113 -73 -197 -11 -48 -43 -154 -70 -237
-27 -82 -66 -206 -88 -275 -35 -110 -145 -382 -219 -540 -14 -30 -50 -118 -80
-195 -140 -357 -199 -501 -209 -510 -7 -5 -50 -68 -97 -140 -78 -118 -317
-415 -420 -523 -23 -24 -73 -64 -112 -89 -83 -54 -332 -206 -392 -239 -39 -21
-210 -84 -230 -84 -5 0 -46 49 -91 110 -70 94 -91 115 -151 149 -142 83 -334
115 -611 101 -165 -9 -255 -25 -378 -66 -196 -66 -306 -154 -359 -290 -63
-160 -78 -235 -78 -394 0 -122 4 -156 22 -215 26 -83 80 -176 146 -250 l46
-53 -97 -32 c-122 -40 -212 -83 -327 -156 -49 -31 -144 -83 -210 -116 -125
-63 -364 -197 -494 -277 l-76 -46 -95 8 c-148 13 -505 1 -655 -22 -314 -47
-604 -135 -850 -255 -171 -84 -284 -157 -435 -280 -58 -47 -181 -144 -275
-216 -197 -150 -472 -408 -462 -433 3 -9 23 -23 43 -32 55 -23 271 -53 424
-60 74 -3 160 -10 190 -15 64 -12 700 -31 742 -23 39 8 29 -14 -20 -47 -43
-29 -242 -231 -237 -241 13 -20 221 22 296 61 19 10 64 26 100 35 164 42 532
200 709 304 60 35 106 52 230 83 85 21 202 52 260 68 58 16 150 39 204 51 127
27 335 94 350 112 6 8 43 25 81 37 210 68 619 228 855 335 69 31 154 68 190
82 l65 25 -25 -28 c-14 -14 -92 -86 -175 -159 -82 -73 -186 -168 -230 -211
-104 -100 -447 -357 -709 -529 -220 -144 -471 -295 -492 -295 -7 0 -26 -11
-43 -25 -16 -14 -77 -52 -134 -85 -85 -48 -120 -62 -188 -74 -189 -35 -761
-64 -919 -47 -244 26 -443 36 -730 36 -292 0 -311 -1 -440 -27 -74 -15 -184
-34 -245 -43 -258 -38 -582 -113 -770 -179 -38 -13 -117 -36 -175 -51 -186
-47 -320 -95 -505 -182 -181 -85 -215 -105 -215 -129 0 -16 125 -76 345 -166
149 -60 188 -72 315 -93 80 -13 213 -31 295 -39 83 -9 202 -24 265 -33 100
-14 140 -15 315 -4 872 52 1707 238 2207 492 42 21 85 39 96 39 11 0 25 6 31
14 6 7 32 19 56 26 31 9 49 21 58 38 6 14 18 28 26 30 10 3 9 -5 -6 -29 -11
-19 -49 -81 -83 -139 -35 -58 -72 -111 -82 -118 -10 -7 -64 -52 -121 -99 -56
-47 -115 -91 -132 -98 -18 -8 -88 -15 -170 -18 -133 -4 -144 -6 -230 -41 -100
-41 -198 -98 -336 -196 -153 -108 -193 -143 -220 -195 -14 -28 -49 -88 -78
-134 -28 -46 -51 -88 -51 -93 0 -5 -8 -4 -18 1 -14 7 -43 -2 -123 -38 -123
-57 -247 -98 -459 -152 -279 -71 -618 -131 -805 -144 -44 -3 -114 -11 -155
-19 -294 -56 -770 -164 -959 -217 -79 -23 -154 -42 -165 -43 -12 -2 -43 -14
-71 -28 -27 -14 -90 -42 -138 -62 -176 -73 -355 -170 -430 -235 -17 -15 -59
-45 -92 -67 -141 -92 -306 -237 -405 -354 -45 -53 -93 -138 -85 -150 2 -4 35
-12 72 -20 65 -12 232 -7 500 15 28 3 119 7 201 9 172 6 313 26 727 106 140
27 375 85 495 121 271 82 659 253 880 390 47 29 143 83 213 120 163 87 303
173 392 243 39 31 108 79 155 107 47 28 93 58 103 67 20 18 21 11 3 -48 -14
-45 -81 -130 -103 -130 -6 0 -15 -10 -19 -22 -3 -13 -142 -160 -308 -328 -630
-637 -774 -802 -1013 -1160 -216 -324 -366 -601 -467 -865 -32 -82 -76 -190
-98 -240 -23 -50 -47 -105 -55 -124 l-14 -34 43 26 c85 49 244 134 290 155 25
11 80 40 120 65 41 25 117 66 169 92 85 43 127 70 266 170 136 98 468 414 638
607 367 414 614 807 659 1046 l11 63 82 -61 c86 -64 122 -78 267 -105 68 -12
116 -15 204 -9 l115 7 -6 -24 c-56 -228 -69 -382 -63 -729 6 -369 29 -528 95
-649 l18 -33 30 38 c16 22 40 57 53 79 13 22 35 54 49 71 71 86 73 88 181 300
51 98 100 190 109 204 38 56 132 262 166 363 20 59 51 138 70 175 41 80 130
346 140 417 3 28 12 59 19 70 13 20 45 153 65 266 13 74 28 291 41 579 10 207
40 511 56 563 6 17 7 17 27 -4 12 -13 33 -38 47 -56 33 -43 195 -179 243 -204
27 -14 37 -25 33 -37 -19 -61 -79 -328 -96 -432 -12 -69 -31 -144 -43 -168
-21 -41 -22 -54 -22 -365 0 -247 4 -351 17 -447 9 -69 20 -152 23 -184 4 -32
19 -111 35 -175 15 -64 36 -154 45 -201 9 -47 30 -110 45 -140 16 -30 49 -100
74 -154 66 -142 164 -303 218 -359 26 -27 58 -61 70 -75 19 -23 70 -62 80 -62
9 0 -5 169 -25 316 -26 184 -26 203 3 889 20 469 63 979 100 1180 32 171 39
225 41 295 1 36 7 71 13 79 6 8 9 17 8 20 -5 7 191 88 239 100 l36 8 11 -201
c13 -220 44 -441 92 -647 17 -74 33 -153 35 -177 2 -24 13 -72 24 -105 11 -34
30 -105 42 -157 24 -108 86 -306 128 -408 31 -75 96 -172 115 -172 7 0 30 -19
51 -41 43 -44 113 -99 127 -99 4 0 8 53 8 118 0 64 5 161 10 215 5 54 14 232
20 395 5 163 14 340 19 392 11 105 25 307 42 595 6 105 13 471 14 815 2 344 8
695 14 780 18 268 34 455 38 445 1 -6 7 -44 12 -85 25 -203 134 -679 202 -885
58 -175 212 -466 234 -443 14 13 18 135 17 463 0 376 -3 419 -46 755 -50 382
-128 704 -197 811 -29 46 -61 66 -108 67 -13 1 -25 3 -28 6 -3 2 4 30 16 62
11 31 18 60 16 63 -2 4 24 45 58 93 64 89 341 447 344 445 0 -1 -10 -58 -23
-127 -107 -559 -88 -1068 56 -1461 39 -110 111 -235 210 -369 67 -91 79 -114
90 -170 6 -35 20 -87 30 -115 10 -27 28 -99 40 -160 68 -340 224 -705 375
-875 l44 -50 15 23 c9 12 22 42 31 67 21 60 105 474 105 519 0 45 10 81 21 81
4 0 37 -26 71 -58 35 -32 86 -77 115 -100 67 -55 201 -256 293 -440 33 -65 37
-59 52 89 10 94 9 114 -6 165 -66 222 -149 405 -316 694 -179 311 -170 288
-160 395 26 275 1 965 -55 1505 -24 231 -80 605 -104 700 -5 19 -15 60 -21 90
-7 30 -25 102 -42 160 -51 180 -50 423 2 546 10 23 37 75 61 115 23 41 56 99
72 129 16 30 59 100 95 155 36 55 84 129 107 165 23 36 79 126 125 200 117
193 162 261 167 256 2 -2 -30 -104 -71 -227 -70 -209 -116 -389 -116 -456 0
-56 -11 -69 -80 -107 -38 -20 -87 -57 -108 -82 -73 -82 -155 -279 -189 -454
-53 -274 22 -659 176 -902 23 -36 41 -68 41 -71 0 -13 140 -147 198 -189 49
-37 74 -48 118 -54 79 -9 295 13 361 38 69 25 188 92 228 128 33 29 74 59 64
47 -9 -11 9 -69 76 -237 74 -188 230 -495 271 -538 7 -6 31 -45 53 -85 54 -99
200 -320 253 -385 24 -29 50 -65 58 -80 14 -25 16 2 23 308 12 463 -4 657 -89
1091 -61 313 -125 556 -244 929 -37 118 -83 285 -100 370 -54 257 -126 542
-154 602 -14 31 -26 61 -26 66 0 17 -109 319 -206 571 -52 134 -94 248 -94
254 0 5 -12 34 -26 63 -22 46 -25 63 -22 133 2 45 -1 82 -6 84 -5 2 3 25 16
52 14 28 40 88 58 135 19 47 37 87 40 90 4 3 17 35 29 72 13 37 27 70 31 73 5
3 19 27 31 53 67 151 142 333 182 442 25 69 64 173 86 231 22 59 42 122 45
140 2 19 11 66 19 104 35 159 35 159 -49 170 -36 5 -53 3 -61 -6z m91 -40 c3
-3 -2 -27 -10 -54 -9 -28 -22 -86 -29 -131 -7 -45 -29 -123 -48 -175 -19 -52
-45 -125 -57 -164 -12 -38 -32 -95 -45 -125 -12 -30 -39 -95 -60 -145 -21 -49
-59 -137 -86 -195 -76 -167 -223 -516 -262 -621 -77 -206 -215 -492 -298 -619
-74 -113 -157 -253 -187 -315 -13 -27 -43 -76 -66 -107 -22 -31 -63 -86 -89
-123 -27 -36 -67 -98 -89 -138 -23 -40 -52 -86 -65 -103 -12 -17 -23 -34 -23
-37 0 -4 -25 -47 -55 -98 -68 -110 -145 -263 -145 -284 0 -42 -354 -505 -630
-826 -22 -25 -40 -50 -40 -54 0 -4 -6 -13 -14 -19 -8 -6 -49 -56 -90 -111 -78
-104 -170 -217 -196 -241 -205 -188 -322 -302 -366 -356 -29 -36 -122 -138
-206 -225 -165 -171 -236 -245 -456 -477 l-142 -151 -83 -12 c-45 -6 -115 -18
-156 -27 -41 -9 -76 -14 -78 -12 -2 2 11 12 30 23 69 41 327 276 327 298 0 8
5 15 10 17 15 5 227 186 275 234 51 53 284 266 352 323 62 51 167 183 168 209
0 16 102 119 170 171 17 13 30 26 30 31 0 4 77 90 171 191 476 512 679 764
691 860 5 33 12 43 42 59 20 10 54 42 75 72 22 29 49 62 61 73 23 21 257 369
268 397 3 10 31 52 60 95 30 43 98 154 151 247 54 92 127 215 164 272 135 208
215 356 248 453 29 88 100 263 169 416 15 33 28 67 30 75 4 19 83 214 120 295
44 97 105 253 142 360 114 330 166 497 199 632 l36 153 38 -3 c22 -1 41 -5 44
-8z m-528 -1576 c-7 -30 18 -643 34 -838 5 -66 10 -156 10 -200 0 -68 27 -272
47 -355 3 -14 2 -22 -2 -18 -4 4 -16 47 -26 95 -19 91 -31 221 -49 548 -6 105
-18 246 -26 314 -16 130 -23 449 -10 469 14 23 28 12 22 -15z m-88 -558 c-10
-393 -6 -722 12 -920 5 -55 8 -100 7 -101 -1 -1 -34 14 -74 33 -67 32 -168 59
-260 70 -39 5 -42 7 -48 41 -3 21 1 78 10 127 19 110 118 496 140 549 33 79
168 453 180 501 12 50 36 108 41 102 1 -1 -2 -182 -8 -402z m-531 -387 c-22
-40 -64 -111 -92 -158 -29 -47 -53 -88 -54 -92 -1 -4 -15 -27 -31 -50 -16 -24
-61 -88 -99 -143 -39 -55 -115 -166 -171 -247 -55 -82 -107 -148 -114 -148 -7
0 -71 -27 -141 -61 -110 -53 -131 -60 -151 -50 -39 17 -46 52 -28 129 17 72
14 226 -6 246 -18 18 -11 36 16 36 33 0 192 54 257 87 60 30 291 188 377 258
36 29 112 100 170 159 58 58 106 106 107 106 1 0 -17 -33 -40 -72z m-1507
-163 c192 -29 313 -81 414 -179 102 -100 186 -266 186 -369 0 -26 -11 -69 -25
-101 -14 -31 -25 -63 -25 -71 0 -24 -161 -171 -256 -233 -51 -33 -93 -64 -95
-69 -5 -12 -182 -107 -249 -133 -90 -35 -232 -68 -390 -90 -128 -18 -257 -24
-245 -12 2 2 -32 22 -75 43 -85 43 -134 90 -202 193 -95 146 -118 346 -64 561
37 151 69 221 123 273 151 144 590 235 903 187z m1740 -416 c19 -5 50 -9 68
-9 39 0 224 -74 245 -98 8 -10 17 -30 21 -45 4 -16 39 -65 78 -110 71 -82 148
-191 148 -210 0 -5 18 -38 39 -72 56 -88 141 -261 158 -320 21 -75 28 -256 13
-358 -6 -48 -16 -87 -20 -87 -4 0 -33 -40 -64 -90 -32 -49 -61 -90 -66 -90 -4
0 -47 -33 -95 -73 -94 -80 -172 -131 -226 -149 -19 -6 -43 -15 -54 -20 -30
-13 -282 7 -308 25 -132 90 -292 252 -338 344 -13 26 -27 50 -30 53 -12 11
-36 86 -31 99 3 9 0 11 -8 6 -9 -5 -11 -4 -6 4 4 6 0 46 -8 89 -9 42 -20 120
-26 172 -6 52 -13 109 -15 125 -16 120 -17 138 -7 158 5 12 17 60 26 107 32
177 115 376 184 442 41 39 107 78 134 78 9 0 20 5 24 11 3 6 20 17 38 24 30
13 56 12 126 -6z m-969 -517 c-60 -118 -280 -370 -734 -844 -185 -193 -216
-221 -279 -253 -39 -19 -83 -35 -99 -35 -15 0 -79 -13 -141 -29 -62 -16 -153
-34 -203 -40 -96 -12 -258 -15 -267 -5 -4 3 37 35 90 71 54 36 127 89 164 119
37 30 95 70 129 90 34 20 116 78 183 128 66 51 148 110 181 131 33 21 104 71
157 111 54 41 101 74 104 74 4 0 45 35 92 78 47 42 162 145 257 227 167 145
176 151 276 191 57 23 105 38 107 33 2 -4 -6 -25 -17 -47z m180 -64 c-33 -101
-61 -201 -70 -254 -6 -34 -23 -100 -36 -147 -46 -156 -73 -289 -120 -572 -25
-154 -49 -300 -53 -325 l-8 -45 -28 118 c-62 261 -106 601 -92 710 7 55 14 65
172 270 160 206 233 291 242 283 2 -3 -1 -19 -7 -38z m-1871 -459 c-47 -29
-157 -90 -245 -137 -198 -105 -342 -188 -462 -264 -51 -32 -95 -58 -98 -58
-48 0 167 147 440 301 140 78 410 208 435 209 8 0 -23 -23 -70 -51z m3615
-586 c19 -117 70 -325 115 -474 50 -160 34 -147 -25 21 -47 137 -80 266 -105
420 -23 144 -23 140 -11 140 4 0 16 -48 26 -107z m-2882 -265 c-31 -32 -144
-231 -158 -279 -4 -13 -29 -71 -55 -129 -129 -282 -308 -731 -371 -928 -13
-39 -26 -69 -29 -65 -4 5 -17 37 -30 73 -12 36 -38 97 -57 135 -19 39 -34 71
-34 72 0 8 -38 70 -61 100 l-27 35 19 37 c52 103 285 400 456 583 99 106 222
239 273 296 51 56 96 102 99 102 3 0 -8 -15 -25 -32z m631 -70 c26 -230 97
-552 180 -813 25 -76 43 -141 42 -143 -6 -5 -80 190 -119 315 -52 164 -87 352
-122 651 -3 29 -2 52 3 52 5 0 13 -28 16 -62z m-3054 -57 c-30 -18 -231 -72
-442 -120 -119 -28 -270 -68 -335 -91 -65 -22 -126 -43 -137 -47 -13 -4 -17
-2 -14 8 16 49 361 152 779 233 137 27 173 31 149 17z m-1112 -306 c-3 -3 -79
-28 -169 -56 -90 -28 -197 -64 -237 -81 -40 -17 -75 -28 -78 -26 -8 8 6 35 19
36 7 0 62 21 122 46 61 25 153 54 205 65 94 19 148 26 138 16z m3381 -131
c-74 -157 -95 -218 -119 -339 -11 -60 -23 -111 -26 -114 -3 -3 -9 1 -14 9 -32
50 24 295 95 416 30 51 105 147 111 141 2 -2 -19 -53 -47 -113z m-722 -416
c18 -19 103 -169 130 -228 4 -8 12 -20 19 -27 17 -18 82 -219 100 -309 17 -89
18 -269 2 -354 -14 -73 -34 -110 -125 -232 -103 -137 -114 -150 -278 -314
-268 -268 -398 -299 -667 -157 -152 80 -274 203 -308 312 -11 35 -20 70 -20
78 0 8 -9 27 -20 41 -14 17 -19 34 -15 51 3 14 8 64 10 110 3 47 9 87 14 90 5
4 14 31 20 61 6 30 22 89 35 130 13 41 33 107 45 145 26 86 64 154 125 222 25
28 46 56 46 61 0 14 96 88 184 142 77 47 197 101 266 121 25 7 50 16 55 20 16
12 94 31 145 36 25 2 70 8 100 12 96 14 115 13 137 -11z m-1120 -635 c-71
-119 -125 -205 -147 -233 -15 -19 -31 -46 -35 -60 -4 -14 -49 -104 -99 -200
-50 -96 -112 -219 -136 -272 -25 -54 -48 -98 -51 -98 -4 0 -11 17 -16 38 -7
31 -5 45 15 82 13 25 28 50 33 56 5 7 25 56 43 110 38 112 49 136 135 289 34
61 76 140 94 177 18 37 37 67 44 67 6 1 18 7 26 15 19 20 103 45 94 29z
m-1557 -82 c0 -25 -589 -111 -1170 -170 -410 -42 -840 -70 -840 -54 0 12 377
56 790 93 418 38 842 85 1025 115 161 26 195 29 195 16z m1123 -463 c-9 -24
-19 -47 -23 -53 -4 -5 -17 -39 -30 -75 l-24 -64 -25 54 -24 54 69 63 c38 34
70 63 71 63 2 0 -5 -19 -14 -42z m1986 -229 c-13 -239 -6 -446 26 -713 16
-134 14 -166 -4 -99 -36 125 -45 221 -45 488 -1 235 18 565 31 552 2 -3 -2
-105 -8 -228z m-2129 66 c11 -38 28 -83 36 -100 26 -50 46 -116 41 -136 -3
-11 -1 -19 4 -19 16 0 10 -347 -10 -535 -35 -329 -69 -438 -197 -635 -58 -90
-66 -97 -176 -155 -51 -27 -104 -57 -118 -67 -21 -15 -175 -61 -205 -60 -50 0
-206 29 -270 49 -97 31 -149 56 -195 94 -19 16 -39 29 -45 29 -12 0 -57 70
-78 121 -8 20 -20 86 -27 146 -13 117 -14 108 58 423 19 85 119 298 205 435
90 146 152 212 289 309 197 141 290 174 506 181 74 2 136 6 140 9 9 10 20 -13
42 -89z m1125 -542 c-17 -43 -45 -205 -55 -326 -7 -73 -10 -228 -8 -345 1
-116 0 -212 -3 -212 -4 0 -12 44 -19 98 -16 122 -8 426 14 567 19 118 52 235
67 235 7 0 8 -7 4 -17z m-4155 -942 c0 -5 -24 -30 -52 -55 -128 -112 -520
-267 -640 -254 -31 4 -28 6 52 45 47 23 156 69 242 102 86 32 205 85 265 115
106 55 133 65 133 47z m2769 -331 c-21 -96 -52 -265 -69 -374 -17 -110 -32
-202 -35 -204 -10 -10 -17 100 -11 177 6 87 55 324 96 461 20 69 47 127 55
118 2 -1 -15 -82 -36 -178z m-1439 -105 c0 -15 -74 -150 -116 -211 -157 -231
-557 -644 -591 -610 -14 13 107 149 279 315 182 175 287 301 360 430 17 31 36
62 41 69 9 12 27 17 27 7z"/>
<path d="M7305 8211 c-78 -19 -138 -72 -133 -117 4 -35 20 -41 33 -12 6 12 45
43 88 68 99 60 110 70 72 69 -17 -1 -43 -4 -60 -8z"/>
<path d="M8076 7719 c-12 -27 -73 -92 -186 -197 -93 -86 -166 -160 -163 -165
8 -13 181 113 254 186 83 81 129 149 129 189 0 39 -12 35 -34 -13z"/>
<path d="M9790 7784 c0 -9 29 -43 65 -76 77 -72 118 -131 140 -202 9 -28 19
-58 22 -66 3 -11 9 -7 20 14 10 20 14 47 11 87 -4 51 -10 66 -49 115 -70 92
-209 176 -209 128z"/>
<path d="M9403 7185 c-32 -22 -54 -90 -60 -185 -9 -144 25 -259 101 -346 40
-44 46 -31 16 33 -44 98 -64 194 -65 308 0 95 3 116 23 153 30 58 27 67 -15
37z"/>
<path d="M6590 4589 c0 -42 -23 -98 -61 -148 -41 -54 -35 -65 20 -36 45 23 79
115 66 175 -8 34 -25 40 -25 9z"/>
<path d="M5840 4376 c-81 -45 -128 -289 -84 -437 19 -63 71 -169 83 -169 4 0
-1 44 -12 98 -13 64 -20 138 -20 217 -1 129 10 174 58 247 38 58 29 73 -25 44z"/>
<path d="M5013 3238 c-7 -40 -28 -129 -48 -197 -20 -68 -34 -125 -31 -128 7
-8 85 138 102 192 9 28 18 85 21 128 5 71 4 77 -13 77 -16 0 -21 -12 -31 -72z"/>
<path d="M4174 3231 c-52 -31 -111 -141 -139 -258 -25 -103 -17 -190 25 -282
33 -71 58 -96 45 -44 -17 69 -24 194 -15 265 16 126 77 264 134 301 55 36 7
53 -50 18z"/>
</g>
</svg>
