<svg width="1511" height="496" viewBox="0 0 1511 496" fill="none" xmlns="http://www.w3.org/2000/svg">
<path d="M0 0L28.0374 9.77696C55.907 19.3962 111.982 38.9501 167.889 47.6232C223.796 56.2963 279.871 54.0886 335.778 59.4501C391.685 64.654 447.76 77.2694 503.667 76.0078C559.574 74.5886 615.649 59.4501 671.556 54.4039C727.463 49.3578 783.537 54.7193 839.444 50.777C895.351 46.8347 951.426 33.5885 1007.33 41.0001C1063.24 48.4116 1119.32 76.1655 1175.22 86.4155C1231.13 96.6655 1287.2 89.4117 1343.11 72.854C1399.02 56.2963 1455.09 30.4347 1482.96 17.6616L1511 4.73078V425.77H1482.96C1455.09 425.77 1399.02 425.77 1343.11 425.77C1287.2 425.77 1231.13 425.77 1175.22 425.77C1119.32 425.77 1063.24 425.77 1007.33 425.77C951.426 425.77 895.351 425.77 839.444 425.77C783.537 425.77 727.463 425.77 671.556 425.77C615.649 425.77 559.574 425.77 503.667 425.77C447.76 425.77 391.685 425.77 335.778 425.77C279.871 425.77 223.796 425.77 167.889 425.77C111.982 425.77 55.907 425.77 28.0374 425.77H0V0Z" fill="#304459"/>
<path d="M0 169.949L28.0374 157.158C55.907 144.213 111.982 118.63 167.889 107.072C223.796 95.5141 279.871 97.9798 335.778 89.0415C391.685 80.1032 447.76 59.4526 503.667 58.2197C559.574 56.9868 615.649 74.8635 671.556 90.5826C727.463 106.302 783.537 119.555 839.444 111.85C895.351 104.144 951.426 75.4799 1007.33 74.8635C1063.24 74.4011 1119.32 102.141 1175.22 114.161C1231.13 126.336 1287.2 122.637 1343.11 128.802C1399.02 134.966 1455.09 150.993 1482.96 158.853L1511 166.867V425.77H1482.96C1455.09 425.77 1399.02 425.77 1343.11 425.77C1287.2 425.77 1231.13 425.77 1175.22 425.77C1119.32 425.77 1063.24 425.77 1007.33 425.77C951.426 425.77 895.351 425.77 839.444 425.77C783.537 425.77 727.463 425.77 671.556 425.77C615.649 425.77 559.574 425.77 503.667 425.77C447.76 425.77 391.685 425.77 335.778 425.77C279.871 425.77 223.796 425.77 167.889 425.77C111.982 425.77 55.907 425.77 28.0374 425.77H0V169.949Z" fill="#2B3C51"/>
<path d="M0 194.111L28.0374 189.304C55.907 184.351 111.982 174.737 167.889 162.5C223.796 150.409 279.871 135.842 335.778 147.496C391.685 159.15 447.76 197.025 503.667 210.135C559.574 223.246 615.649 211.592 671.556 200.667C727.463 189.741 783.537 179.544 839.444 164.248C895.351 148.953 951.426 128.558 1007.33 119.09C1063.24 109.621 1119.32 111.078 1175.22 124.625C1231.13 138.318 1287.2 163.957 1343.11 177.65C1399.02 191.198 1455.09 192.655 1482.96 193.383L1511 194.111V416.991H1482.96C1455.09 416.991 1399.02 416.991 1343.11 416.991C1287.2 416.991 1231.13 416.991 1175.22 416.991C1119.32 416.991 1063.24 416.991 1007.33 416.991C951.426 416.991 895.351 416.991 839.444 416.991C783.537 416.991 727.463 416.991 671.556 416.991C615.649 416.991 559.574 416.991 503.667 416.991C447.76 416.991 391.685 416.991 335.778 416.991C279.871 416.991 223.796 416.991 167.889 416.991C111.982 416.991 55.907 416.991 28.0374 416.991H0V194.111Z" fill="#263548"/>
<path d="M0 292.162L28.0374 293.107C55.907 293.916 111.982 295.806 167.889 285.414C223.796 275.022 279.871 252.619 335.778 241.148C391.685 229.676 447.76 229.137 503.667 231.701C559.574 234.13 615.649 239.528 671.556 251C727.463 262.471 783.537 280.016 839.444 286.359C895.351 292.567 951.426 287.708 1007.33 276.912C1063.24 266.115 1119.32 249.38 1175.22 252.079C1231.13 254.779 1287.2 276.912 1343.11 287.033C1399.02 297.155 1455.09 295.266 1482.96 294.456L1511 293.511V425.77H1482.96C1455.09 425.77 1399.02 425.77 1343.11 425.77C1287.2 425.77 1231.13 425.77 1175.22 425.77C1119.32 425.77 1063.24 425.77 1007.33 425.77C951.426 425.77 895.351 425.77 839.444 425.77C783.537 425.77 727.463 425.77 671.556 425.77C615.649 425.77 559.574 425.77 503.667 425.77C447.76 425.77 391.685 425.77 335.778 425.77C279.871 425.77 223.796 425.77 167.889 425.77C111.982 425.77 55.907 425.77 28.0374 425.77H0V292.162Z" fill="#212E40"/>
<path d="M1511 451.964L1482.96 451.29C1455.09 450.712 1399.02 449.364 1343.11 456.779C1287.2 464.193 1231.13 480.177 1175.22 488.362C1119.32 496.547 1063.24 496.932 1007.33 495.102C951.426 493.369 895.351 489.517 839.444 481.333C783.537 473.148 727.463 460.63 671.556 456.105C615.649 451.675 559.574 455.142 503.667 462.845C447.76 470.548 391.685 482.488 335.778 480.562C279.871 478.637 223.796 462.845 167.889 455.623C111.982 448.402 55.907 449.75 28.0374 450.327L-2.52724e-05 451.001V356.637H28.0374C55.907 356.637 111.982 356.637 167.889 356.637C223.796 356.637 279.871 356.637 335.778 356.637C391.685 356.637 447.76 356.637 503.667 356.637C559.574 356.637 615.649 356.637 671.556 356.637C727.463 356.637 783.537 356.637 839.444 356.637C895.351 356.637 951.426 356.637 1007.33 356.637C1063.24 356.637 1119.32 356.637 1175.22 356.637C1231.13 356.637 1287.2 356.637 1343.11 356.637C1399.02 356.637 1455.09 356.637 1482.96 356.637H1511V451.964Z" fill="#1C2737"/>
<path d="M0 286.407L28.0374 287.27C55.907 288.24 111.982 289.965 167.889 299.344C223.796 308.724 279.871 325.542 335.778 323.062C391.685 320.583 447.76 298.59 503.667 290.719C559.574 282.849 615.649 288.887 671.556 300.099C727.463 311.203 783.537 327.375 839.444 335.245C895.351 343.223 951.426 342.791 1007.33 332.549C1063.24 322.308 1119.32 302.255 1175.22 300.638C1231.13 299.021 1287.2 315.839 1343.11 321.661C1399.02 327.375 1455.09 321.984 1482.96 319.289L1511 316.594V409.31H1482.96C1455.09 409.31 1399.02 409.31 1343.11 409.31C1287.2 409.31 1231.13 409.31 1175.22 409.31C1119.32 409.31 1063.24 409.31 1007.33 409.31C951.426 409.31 895.351 409.31 839.444 409.31C783.537 409.31 727.463 409.31 671.556 409.31C615.649 409.31 559.574 409.31 503.667 409.31C447.76 409.31 391.685 409.31 335.778 409.31C279.871 409.31 223.796 409.31 167.889 409.31C111.982 409.31 55.907 409.31 28.0374 409.31H0V286.407Z" fill="#1C2737"/>
</svg>
